<?xml version="1.0" encoding="UTF-8"?>
<!DOCTYPE svg PUBLIC "-//W3C//DTD SVG 1.1//EN" "http://www.w3.org/Graphics/SVG/1.1/DTD/svg11.dtd">
<svg xmlns="http://www.w3.org/2000/svg" version="1.1" width="13px" height="9px" viewBox="0 0 130 90"  style="shape-rendering:geometricPrecision; text-rendering:geometricPrecision; image-rendering:optimizeQuality; fill-rule:evenodd; clip-rule:evenodd" xmlns:xlink="http://www.w3.org/1999/xlink">
<g><path style="opacity:0.999" fill="#30a126" d="M 113.5,-0.5 C 115.833,-0.5 118.167,-0.5 120.5,-0.5C 123.576,1.57257 125.91,4.23924 127.5,7.5C 127.5,8.5 127.5,9.5 127.5,10.5C 126.649,12.7097 125.316,14.7097 123.5,16.5C 93.9896,35.167 67.9896,58.0003 45.5,85C 43.6854,85.7568 42.0188,86.5902 40.5,87.5C 39.8333,87.5 39.1667,87.5 38.5,87.5C 35.6699,86.4897 33.1699,84.8231 31,82.5C 22.0579,69.3933 11.5579,57.7266 -0.5,47.5C -0.5,44.8333 -0.5,42.1667 -0.5,39.5C 3.68708,33.2953 9.02041,32.1287 15.5,36C 19.6994,40.5343 24.1994,44.701 29,48.5C 32.6667,52.8333 36.3333,57.1667 40,61.5C 61.7102,37.2702 86.2102,16.6035 113.5,-0.5 Z"/></g>
</svg>
