<?xml version="1.0" encoding="UTF-8"?>
<svg width="800px" height="800px" fill="none" viewBox="0 0 24 24" xmlns="http://www.w3.org/2000/svg">
<path d="m12 8.9999-7.9361 5.1585c-0.68785 0.4471-1.0318 0.6707-1.1509 0.9542-0.10409 0.2477-0.10409 0.527 0 0.7747m9.087-6.8874 7.9361 5.1585c0.6879 0.4471 1.0318 0.6707 1.1509 0.9542 0.1041 0.2477 0.1041 0.527 0 0.7747m-9.087-6.8874v-6.5m0 12.5-7.9361-5.1584c-0.68785-0.4471-1.0318-0.67065-1.1509-0.95415-0.10409-0.24775-0.10409-0.52697 0-0.77472m9.087 6.8873 7.9361-5.1584c0.6879-0.4471 1.0318-0.67065 1.1509-0.95415 0.1041-0.24775 0.1041-0.52697 0-0.77472m-9.087 6.8873v6.5m9.272-5.5267-8.4 5.46c-0.3156 0.2051-0.4735 0.3077-0.6435 0.3476-0.1503 0.0353-0.3067 0.0353-0.457 0-0.17-0.0399-0.3279-0.1425-0.6435-0.3476l-8.4-5.46c-0.26601-0.173-0.39901-0.2594-0.49537-0.3747-0.0853-0.1021-0.14938-0.2202-0.18848-0.3473-0.04417-0.1437-0.04417-0.3023-0.04417-0.6196v-5.2634c0-0.31726 0-0.47589 0.04417-0.61953 0.0391-0.12716 0.10318-0.24523 0.18848-0.34731 0.09636-0.11532 0.22936-0.20177 0.49537-0.37467l8.4-5.46c0.3156-0.20516 0.4735-0.30773 0.6435-0.34764 0.1503-0.03528 0.3067-0.03528 0.457 0 0.17 0.03991 0.3279 0.14248 0.6435 0.34764l8.4 5.46c0.266 0.1729 0.399 0.25935 0.4954 0.37467 0.0853 0.10208 0.1493 0.22015 0.1884 0.34731 0.0442 0.14364 0.0442 0.30227 0.0442 0.61953v5.2634c0 0.3173 0 0.4759-0.0442 0.6196-0.0391 0.1271-0.1031 0.2452-0.1884 0.3473-0.0964 0.1153-0.2294 0.2017-0.4954 0.3747z" stroke="#000" stroke-linecap="round" stroke-linejoin="round" stroke-width="2"/>
</svg>
