<?xml version="1.0" encoding="utf-8"?>
<!-- Generator: Adobe Illustrator 24.1.2, SVG Export Plug-In . SVG Version: 6.00 Build 0)  -->
<svg version="1.1" id="Layer_1" xmlns="http://www.w3.org/2000/svg" xmlns:xlink="http://www.w3.org/1999/xlink" x="0px" y="0px"
	 viewBox="0 0 219.9 167" style="enable-background:new 0 0 219.9 167;" xml:space="preserve">
<style type="text/css">
	.st0{fill:none;}
	.st1{fill:none;stroke:#000000;stroke-width:15;stroke-linecap:round;stroke-linejoin:round;}
</style>
<rect x="-24.5" y="-48.5" class="st0" width="20" height="20"/>
<path class="st1" d="M7.5,159.5v-144c0-4.4,3.6-8,8-8h53.3c1.7,0,3.4,0.6,4.8,1.6l27.8,20.8c1.4,1,3.1,1.6,4.8,1.6h69.3
	c4.4,0,8,3.6,8,8v24"/>
<path class="st1" d="M7.5,159.5L37.7,69c1.1-3.3,4.1-5.5,7.6-5.5h159.1c4.4,0,8,3.6,8,8c0,0.8-0.1,1.7-0.4,2.5l-28.5,85.5H7.5z"/>
</svg>
