<?xml version="1.0" encoding="UTF-8"?>
<svg width="20px" height="20px" fill="#000000" viewBox="0 0 1920 1920" xmlns="http://www.w3.org/2000/svg">
<path d="m1821.6 637.76c0-130.03-43.627-236.37-116.05-319.68 11.627-30.187 50.347-151.36-11.2-315.31 0 0-94.72-32-310.4 122.13-90.133-26.454-186.77-39.68-282.77-40.107-96 0.427-192.64 13.653-282.67 40.107-215.79-154.13-310.61-122.13-310.61-122.13-61.547 163.95-22.72 285.12-11.094 315.31-72.32 83.307-116.27 189.65-116.27 319.68 0 456.53 263.68 558.72 514.45 588.8 0 0-180.27 111.68-180.27 299.41-64.32 30.507-336.53 123.95-437.33-58.133 0 0-59.627-114.35-173.01-122.77 0 0-110.29-1.494-7.787 72.426 0 0 74.027 36.694 125.44 174.29 0 0 57.173 289.92 489.07 159.68 4.373 2.24 1.6 140.27 1.6 168.53h777.17s1.28-277.01 1.28-365.12c0-216.64-144.64-292.48-185.28-329.28 251.63-29.44 515.73-130.13 515.73-587.84" fill-rule="evenodd"/>
</svg>
