<?xml version="1.0" encoding="UTF-8"?>
<!DOCTYPE svg  PUBLIC '-//W3C//DTD SVG 1.1//EN'  'http://www.w3.org/Graphics/SVG/1.1/DTD/svg11.dtd'>
<svg width="800px" height="800px" fill="#000000" version="1.1" viewBox="0 0 512 512" xml:space="preserve" xmlns="http://www.w3.org/2000/svg">



<path d="m116.5 500.22v-329.56h-109.53v329.56h109.53v1e-3zm-54.753-374.54c38.183 0 61.968-25.328 61.968-56.953-0.722-32.328-23.785-56.941-61.252-56.941-37.473 1e-3 -61.967 24.614-61.967 56.942 0 31.625 23.772 56.953 60.53 56.953h0.721v-1e-3zm115.37 374.54s1.437-298.64 0-329.56h109.55v47.794h-0.727c14.404-22.49 40.354-55.533 99.44-55.533 72.085 0 126.12 47.103 126.12 148.33v188.97h-109.53v-176.31c0-44.301-15.848-74.531-55.497-74.531-30.254 0-48.284 20.38-56.202 40.08-2.897 7.012-3.602 16.861-3.602 26.711v184.05h-109.55z" clip-rule="evenodd" fill-rule="evenodd">

</path>



</svg>
