<?xml version="1.0" encoding="UTF-8"?>
<svg width="800px" height="800px" fill="#000000" version="1.1" viewBox="0 0 512 512" xml:space="preserve" xmlns="http://www.w3.org/2000/svg">

	
		<path d="m256 0c-141.38 0-256 114.62-256 256s114.62 256 256 256 256-114.62 256-256-114.62-256-256-256zm-83.789 41.609c-24.934 27.119-44.68 66.125-56.755 111.99h-65.707c25.43-50.86 69.12-91.077 122.46-111.99zm-146.61 214.39c0-26.999 5.077-52.727 13.662-76.8h70.494c-4.608 24.294-7.356 49.963-7.356 76.8s2.748 52.506 7.347 76.8h-70.485c-8.585-24.073-13.662-49.8-13.662-76.8zm24.149 102.4h65.707c12.083 45.867 31.821 84.872 56.755 111.99-53.342-20.915-97.032-61.132-122.46-111.99zm193.45 126.79c-43.81-8.252-81.877-58.24-101.36-126.79h101.36v126.79zm0-152.39h-107.46c-4.924-24.166-7.74-49.997-7.74-76.8s2.816-52.634 7.74-76.8h107.46v153.6zm0-179.2h-101.36c19.482-68.548 57.549-118.54 101.36-126.79v126.79zm219.05 0h-65.707c-12.083-45.867-31.821-84.873-56.755-111.99 53.342 20.916 97.032 61.133 122.46 111.99zm-193.45-126.79c43.81 8.252 81.877 58.24 101.36 126.79h-101.36v-126.79zm0 152.39h107.46c4.924 24.166 7.74 49.997 7.74 76.8s-2.816 52.634-7.74 76.8h-107.46v-153.6zm0 305.99v-126.79h101.36c-19.482 68.548-57.549 118.54-101.36 126.79zm70.989-14.797c24.934-27.127 44.672-66.125 56.755-111.99h65.707c-25.43 50.859-69.12 91.076-122.46 111.99zm62.455-137.59c4.608-24.294 7.356-49.963 7.356-76.8s-2.748-52.506-7.347-76.8h70.494c8.576 24.073 13.653 49.801 13.653 76.8 0 27-5.077 52.727-13.662 76.8h-70.494z"/>
	

</svg>
