<?xml version="1.0" encoding="UTF-8"?>
<!DOCTYPE svg PUBLIC "-//W3C//DTD SVG 1.1//EN" "http://www.w3.org/Graphics/SVG/1.1/DTD/svg11.dtd">
<svg xmlns="http://www.w3.org/2000/svg" version="1.1" width="9px" height="9px"  viewBox="0 0 90 90" style="shape-rendering:geometricPrecision; text-rendering:geometricPrecision; image-rendering:optimizeQuality; fill-rule:evenodd; clip-rule:evenodd" xmlns:xlink="http://www.w3.org/1999/xlink">
<g><path style="opacity:1" fill="#e01f1e" d="M 6.5,-0.5 C 8.16667,-0.5 9.83333,-0.5 11.5,-0.5C 22.7551,9.41743 33.7551,19.7508 44.5,30.5C 55.2687,19.7254 66.2687,9.39204 77.5,-0.5C 79.1667,-0.5 80.8333,-0.5 82.5,-0.5C 85.1667,1.5 87.5,3.83333 89.5,6.5C 89.5,8.5 89.5,10.5 89.5,12.5C 79.2155,23.1194 68.8821,33.786 58.5,44.5C 69.2492,55.2449 79.5826,66.2449 89.5,77.5C 89.5,79.5 89.5,81.5 89.5,83.5C 87.8333,85.8333 85.8333,87.8333 83.5,89.5C 80.8333,89.5 78.1667,89.5 75.5,89.5C 64.8951,79.3961 54.3951,69.0627 44,58.5C 34.2583,69.3798 24.0916,79.7131 13.5,89.5C 10.8333,89.5 8.16667,89.5 5.5,89.5C 3.16667,87.8333 1.16667,85.8333 -0.5,83.5C -0.5,81.1667 -0.5,78.8333 -0.5,76.5C 9.60394,65.8951 19.9373,55.3951 30.5,45C 19.5701,34.574 9.23677,23.7407 -0.5,12.5C -0.5,10.5 -0.5,8.5 -0.5,6.5C 1.16667,3.5 3.5,1.16667 6.5,-0.5 Z"/></g>
</svg>
