<?xml version="1.0" encoding="utf-8"?>
<!-- Generator: Adobe Illustrator 24.1.2, SVG Export Plug-In . SVG Version: 6.00 Build 0)  -->
<svg version="1.1" id="Layer_1" xmlns="http://www.w3.org/2000/svg" xmlns:xlink="http://www.w3.org/1999/xlink" x="0px" y="0px"
	 viewBox="0 0 400 410.5" style="enable-background:new 0 0 400 410.5;" xml:space="preserve">
<path d="M192.6,43L355.9,0L400,162.7l-24.7,42.5l24.7,43l-43.6,162.2l-163.3-44.1l-24.1-42h-49.3L0,204.7L119.7,86.1h48.8L192.6,43
	L192.6,43z M298.2,60.4l-126,32l-90.8,91.3l145.4,2.1L298.2,60.4L298.2,60.4z M333.3,80.8l-72.4,123.4l71.9,126L368,204.7
	L333.3,80.8L333.3,80.8z M84,224.7l88.7,92.4l127.6,34.6l-73.5-126.5L84,224.7L84,224.7z"/>
</svg>
